<svg width="45" height="36" viewBox="0 0 45 36" fill="none" xmlns="http://www.w3.org/2000/svg">
<path d="M2.29028 32.6972C2.29028 32.6972 18.6924 35.088 22.4763 17.6064C26.2603 0.124849 42.2104 2.4903 42.2104 2.4903" stroke="#C5C5C5" stroke-width="4"/>
<path d="M33.391 32.9305C38.4142 32.9305 42.4863 28.8682 42.4863 23.8571C42.4863 18.846 38.4142 14.7837 33.391 14.7837C28.3678 14.7837 24.2957 18.846 24.2957 23.8571C24.2957 28.8682 28.3678 32.9305 33.391 32.9305Z" stroke="#C5C5C5" stroke-width="4"/>
<path d="M11.1578 20.4294C16.1811 20.4294 20.2532 16.3671 20.2532 11.356C20.2532 6.3449 16.1811 2.28261 11.1578 2.28261C6.13462 2.28261 2.0625 6.3449 2.0625 11.356C2.0625 16.3671 6.13462 20.4294 11.1578 20.4294Z" stroke="#C5C5C5" stroke-width="4"/>
</svg>
